<svg xmlns="http://www.w3.org/2000/svg" width="626" height="627" viewBox="0 0 626 627" version="1.1"><path d="M 163.756 266.529 C 158.672 272.516, 149.165 275.877, 120 281.999 C 102.969 285.574, 95.203 290.759, 88.805 302.826 C 85.917 308.273, 85.814 308.900, 86.236 318.500 C 86.593 326.633, 87.142 329.412, 89.175 333.387 L 91.675 338.275 88.313 344.887 C 84.183 353.007, 82.002 362.402, 83.822 364.222 C 85.773 366.173, 88.322 363.914, 89.816 358.908 C 91.919 351.861, 95.240 345, 96.548 345 C 97.212 345, 98.274 345.626, 98.909 346.390 C 101.028 348.944, 110.101 352.125, 116.838 352.676 C 141.234 354.672, 163.086 338.419, 170.181 313 C 172.214 305.715, 171.880 279.998, 169.639 271.241 C 168.616 267.249, 167.492 263.828, 167.140 263.640 C 166.788 263.452, 165.265 264.752, 163.756 266.529 M 206.639 269.694 C 206.288 270.046, 206 290.508, 206 315.167 C 206 354.352, 206.189 360, 207.500 360 C 208.811 360, 209 354.340, 209 315.059 C 209 290.341, 208.613 269.879, 208.139 269.586 C 207.666 269.294, 206.991 269.342, 206.639 269.694 M 237.500 305.155 C 232.313 307.992, 231.317 314.932, 235.413 319.694 C 237.530 322.155, 238.524 322.500, 243.500 322.500 C 248.484 322.500, 249.468 322.157, 251.601 319.678 C 252.936 318.125, 253.771 316.438, 253.455 315.928 C 252.543 314.452, 248.368 314.852, 246.958 316.551 C 245.377 318.455, 241.059 318.071, 239.704 315.905 C 238.270 313.614, 239.652 309.245, 242.051 308.484 C 243.249 308.104, 245.100 308.491, 246.514 309.417 C 249.931 311.656, 253 311.471, 253 309.026 C 253 305.030, 242.516 302.411, 237.500 305.155 M 256.212 313.250 L 256.500 322.500 265.250 322.789 L 274 323.078 274 320.539 C 274 318.102, 273.758 318, 268 318 C 264.667 318, 262 317.556, 262 317 C 262 316.450, 263.977 316, 266.393 316 C 269.486 316, 270.967 315.529, 271.396 314.410 C 272.382 311.840, 271.162 311, 266.441 311 C 261.073 311, 260.431 309.044, 265.750 308.894 C 273.077 308.686, 273.493 308.550, 273.820 306.250 C 274.131 304.058, 273.904 304, 265.032 304 L 255.925 304 256.212 313.250 M 281.071 305.750 C 278.959 307.469, 274.590 321.256, 275.780 322.447 C 276.084 322.751, 277.366 323, 278.628 323 C 280.490 323, 281.129 322.198, 282.015 318.750 C 284.237 310.107, 284.565 309.511, 287.280 309.188 C 289.864 308.881, 289.911 308.986, 290.203 315.688 C 290.491 322.291, 290.584 322.510, 293.250 322.816 L 296 323.133 296 313.566 L 296 304 289.611 304 C 285.012 304, 282.619 304.490, 281.071 305.750 M 300 313.500 L 300 323 306.566 323 C 315.671 323, 318.954 321.116, 318.985 315.872 C 319.005 312.367, 316.735 310.677, 311.137 310.033 C 306.978 309.555, 306.467 309.217, 306.184 306.750 C 305.919 304.447, 305.390 304, 302.934 304 L 300 304 300 313.500 M 321 304.696 C 321 305.079, 322.166 307.076, 323.592 309.133 L 326.184 312.873 323.092 317.366 C 321.391 319.838, 320 322.117, 320 322.430 C 320 322.744, 321.317 323, 322.927 323 C 324.929 323, 326.538 322.131, 328.016 320.252 L 330.177 317.505 332.541 320.252 C 334.157 322.131, 335.868 323, 337.952 323 C 339.628 323, 341 322.736, 341 322.413 C 341 322.091, 339.582 319.853, 337.850 317.440 L 334.699 313.053 337.350 309.048 C 338.807 306.845, 340 304.808, 340 304.521 C 340 304.235, 338.688 304, 337.083 304 C 335.093 304, 333.564 304.828, 332.268 306.606 L 330.369 309.213 328.662 306.606 C 327.454 304.764, 326.081 304, 323.977 304 C 322.340 304, 321 304.313, 321 304.696 M 345.672 306.043 C 340.235 310.320, 341.675 319.645, 348.119 321.892 C 352.442 323.399, 355.550 323.284, 359.020 321.490 C 364.852 318.474, 365.814 311.660, 361.077 306.923 C 358.635 304.481, 357.341 304, 353.212 304 C 349.749 304, 347.492 304.612, 345.672 306.043 M 368.944 305.844 C 367.470 307.038, 366.894 308.280, 367.311 309.367 C 367.902 310.909, 368.256 310.920, 371.638 309.507 C 375.319 307.969, 379.539 308.319, 378.456 310.072 C 378.140 310.582, 376.752 311, 375.371 311 C 373.340 311, 372.922 311.429, 373.180 313.250 C 373.409 314.861, 374.281 315.590, 376.250 315.816 C 377.762 315.990, 379 316.553, 379 317.066 C 379 318.323, 372.281 318.264, 371.500 317 C 370.536 315.441, 366 315.794, 366 317.429 C 366 323.179, 380.768 325.025, 384.471 319.738 C 386.390 316.998, 386.380 316.523, 384.364 314.507 C 383.144 313.286, 383.017 312.583, 383.864 311.736 C 385.665 309.935, 385.192 307.248, 382.777 305.557 C 379.655 303.370, 371.798 303.533, 368.944 305.844 M 389 313.500 L 389 323 395.750 322.985 C 404.266 322.967, 407.398 321.496, 407.806 317.323 C 408.202 313.279, 405.127 311, 399.277 311 C 396.925 311, 395 310.550, 395 310 C 395 309.450, 396.988 309, 399.418 309 C 405.124 309, 407 308.231, 407 305.893 C 407 304.176, 406.164 304, 398 304 L 389 304 389 313.500 M 409 304.417 C 409 304.646, 409.882 306.892, 410.960 309.408 C 412.183 312.260, 414.159 314.736, 416.210 315.987 L 419.500 317.993 416.750 317.996 C 414.484 317.999, 414 318.440, 414 320.500 C 414 322.658, 414.448 323, 417.277 323 C 422.121 323, 424.468 320.797, 427.384 313.514 C 430.688 305.262, 430.692 304, 427.420 304 C 425.338 304, 424.536 304.773, 423.268 308 C 422.273 310.532, 421.058 312, 419.957 312 C 418.861 312, 417.625 310.521, 416.617 308 C 415.246 304.575, 414.584 304, 412.008 304 C 410.354 304, 409 304.188, 409 304.417 M 433 313.566 L 433 323.133 435.750 322.816 C 437.719 322.590, 438.591 321.861, 438.820 320.250 C 439.087 318.368, 439.760 318, 442.935 318 C 448.229 318, 452 314.874, 452 310.484 C 452 305.548, 449.201 304, 440.277 304 L 433 304 433 313.566 M 456.041 305.959 C 453.482 308.518, 453.437 311.437, 455.918 313.918 C 457.808 315.808, 457.800 315.883, 455.367 319.168 L 452.898 322.500 456.114 322.826 C 458.721 323.090, 459.787 322.568, 461.738 320.076 C 464.971 315.945, 468 315.940, 468 320.066 C 468 322.822, 468.279 323.101, 470.750 322.816 L 473.500 322.500 473.500 313.500 L 473.500 304.500 465.791 304.209 C 459.132 303.957, 457.805 304.195, 456.041 305.959 M 476 305.893 C 476 307.883, 477.842 309, 481.126 309 C 482.205 309, 483.015 309.563, 482.925 310.250 C 482.836 310.938, 482.816 314.087, 482.882 317.250 C 482.992 322.615, 483.160 323, 485.393 323 C 488.315 323, 489 321.394, 489 314.543 C 489 309.462, 489.120 309.226, 492 308.650 C 494.148 308.220, 495 307.475, 495 306.025 C 495 304.134, 494.372 304, 485.500 304 C 476.846 304, 476 304.169, 476 305.893 M 497.212 313.250 L 497.500 322.500 500.500 322.782 C 503.121 323.028, 503.942 322.409, 507 317.881 L 510.500 312.699 510.802 317.850 C 511.094 322.817, 511.209 323, 514.052 323 L 517 323 517 313.500 L 517 304 513.604 304 C 510.602 304, 509.820 304.607, 506.854 309.241 L 503.500 314.483 503.198 309.241 C 502.905 304.158, 502.806 304, 499.910 304 L 496.925 304 497.212 313.250 M 523.223 305.557 C 520.583 307.406, 520.239 312.096, 522.572 314.429 C 524.002 315.859, 523.956 316.240, 522.072 318.636 C 519.287 322.176, 519.457 323, 522.970 323 C 525.111 323, 526.560 322.162, 528.158 320 C 529.378 318.350, 531.191 317, 532.188 317 C 533.535 317, 534 317.770, 534 320 C 534 322.667, 534.333 323, 537 323 L 540 323 540 313.500 L 540 304 532.723 304 C 527.754 304, 524.740 304.494, 523.223 305.557 M 350.612 309.294 C 349.369 310.203, 348.940 311.617, 349.171 314.044 C 349.456 317.037, 349.895 317.545, 352.451 317.836 C 357.249 318.382, 359.845 312.988, 356.429 309.571 C 354.518 307.661, 352.948 307.586, 350.612 309.294 M 439 311 C 439 314.359, 441.216 315.025, 444.471 312.645 C 447.165 310.675, 445.760 308, 442.031 308 C 439.330 308, 439 308.326, 439 311 M 461.336 309.567 C 460.512 311.714, 462.284 313.238, 465.135 312.835 C 466.695 312.614, 467.609 311.734, 467.820 310.250 C 468.092 308.332, 467.682 308, 465.038 308 C 463.145 308, 461.703 308.610, 461.336 309.567 M 527.336 309.567 C 526.512 311.714, 528.284 313.238, 531.135 312.835 C 532.695 312.614, 533.609 311.734, 533.820 310.250 C 534.092 308.332, 533.682 308, 531.038 308 C 529.145 308, 527.703 308.610, 527.336 309.567 M 306.180 316.240 C 306.565 318.935, 308.848 319.563, 311.422 317.681 C 313.914 315.859, 312.626 314, 308.871 314 C 306.325 314, 305.910 314.345, 306.180 316.240 M 395 317 C 395 319.145, 398.263 319.753, 400.878 318.096 C 402.955 316.781, 401.266 315, 397.941 315 C 395.667 315, 395 315.453, 395 317" stroke="none" fill="#4b741b" fill-rule="evenodd"/><path d="M 0 313.502 L 0 627.003 313.250 626.752 L 626.500 626.500 626.752 313.250 L 627.003 0 313.502 0 L 0 0 0 313.502 M 0.494 314 C 0.494 486.425, 0.609 556.963, 0.750 470.750 C 0.891 384.538, 0.891 243.463, 0.750 157.250 C 0.609 71.038, 0.494 141.575, 0.494 314 M 163.756 266.529 C 158.672 272.516, 149.165 275.877, 120 281.999 C 102.969 285.574, 95.203 290.759, 88.805 302.826 C 85.917 308.273, 85.814 308.900, 86.236 318.500 C 86.593 326.633, 87.142 329.412, 89.175 333.387 L 91.675 338.275 88.313 344.887 C 84.183 353.007, 82.002 362.402, 83.822 364.222 C 85.773 366.173, 88.322 363.914, 89.816 358.908 C 91.919 351.861, 95.240 345, 96.548 345 C 97.212 345, 98.274 345.626, 98.909 346.390 C 101.028 348.944, 110.101 352.125, 116.838 352.676 C 141.234 354.672, 163.086 338.419, 170.181 313 C 172.214 305.715, 171.880 279.998, 169.639 271.241 C 168.616 267.249, 167.492 263.828, 167.140 263.640 C 166.788 263.452, 165.265 264.752, 163.756 266.529 M 206.639 269.694 C 206.288 270.046, 206 290.508, 206 315.167 C 206 354.352, 206.189 360, 207.500 360 C 208.811 360, 209 354.340, 209 315.059 C 209 290.341, 208.613 269.879, 208.139 269.586 C 207.666 269.294, 206.991 269.342, 206.639 269.694 M 237.500 305.155 C 232.313 307.992, 231.317 314.932, 235.413 319.694 C 237.530 322.155, 238.524 322.500, 243.500 322.500 C 248.484 322.500, 249.468 322.157, 251.601 319.678 C 252.936 318.125, 253.771 316.438, 253.455 315.928 C 252.543 314.452, 248.368 314.852, 246.958 316.551 C 245.377 318.455, 241.059 318.071, 239.704 315.905 C 238.270 313.614, 239.652 309.245, 242.051 308.484 C 243.249 308.104, 245.100 308.491, 246.514 309.417 C 249.931 311.656, 253 311.471, 253 309.026 C 253 305.030, 242.516 302.411, 237.500 305.155 M 256.212 313.250 L 256.500 322.500 265.250 322.789 L 274 323.078 274 320.539 C 274 318.102, 273.758 318, 268 318 C 264.667 318, 262 317.556, 262 317 C 262 316.450, 263.977 316, 266.393 316 C 269.486 316, 270.967 315.529, 271.396 314.410 C 272.382 311.840, 271.162 311, 266.441 311 C 261.073 311, 260.431 309.044, 265.750 308.894 C 273.077 308.686, 273.493 308.550, 273.820 306.250 C 274.131 304.058, 273.904 304, 265.032 304 L 255.925 304 256.212 313.250 M 281.071 305.750 C 278.959 307.469, 274.590 321.256, 275.780 322.447 C 276.084 322.751, 277.366 323, 278.628 323 C 280.490 323, 281.129 322.198, 282.015 318.750 C 284.237 310.107, 284.565 309.511, 287.280 309.188 C 289.864 308.881, 289.911 308.986, 290.203 315.688 C 290.491 322.291, 290.584 322.510, 293.250 322.816 L 296 323.133 296 313.566 L 296 304 289.611 304 C 285.012 304, 282.619 304.490, 281.071 305.750 M 300 313.500 L 300 323 306.566 323 C 315.671 323, 318.954 321.116, 318.985 315.872 C 319.005 312.367, 316.735 310.677, 311.137 310.033 C 306.978 309.555, 306.467 309.217, 306.184 306.750 C 305.919 304.447, 305.390 304, 302.934 304 L 300 304 300 313.500 M 321 304.696 C 321 305.079, 322.166 307.076, 323.592 309.133 L 326.184 312.873 323.092 317.366 C 321.391 319.838, 320 322.117, 320 322.430 C 320 322.744, 321.317 323, 322.927 323 C 324.929 323, 326.538 322.131, 328.016 320.252 L 330.177 317.505 332.541 320.252 C 334.157 322.131, 335.868 323, 337.952 323 C 339.628 323, 341 322.736, 341 322.413 C 341 322.091, 339.582 319.853, 337.850 317.440 L 334.699 313.053 337.350 309.048 C 338.807 306.845, 340 304.808, 340 304.521 C 340 304.235, 338.688 304, 337.083 304 C 335.093 304, 333.564 304.828, 332.268 306.606 L 330.369 309.213 328.662 306.606 C 327.454 304.764, 326.081 304, 323.977 304 C 322.340 304, 321 304.313, 321 304.696 M 345.672 306.043 C 340.235 310.320, 341.675 319.645, 348.119 321.892 C 352.442 323.399, 355.550 323.284, 359.020 321.490 C 364.852 318.474, 365.814 311.660, 361.077 306.923 C 358.635 304.481, 357.341 304, 353.212 304 C 349.749 304, 347.492 304.612, 345.672 306.043 M 368.944 305.844 C 367.470 307.038, 366.894 308.280, 367.311 309.367 C 367.902 310.909, 368.256 310.920, 371.638 309.507 C 375.319 307.969, 379.539 308.319, 378.456 310.072 C 378.140 310.582, 376.752 311, 375.371 311 C 373.340 311, 372.922 311.429, 373.180 313.250 C 373.409 314.861, 374.281 315.590, 376.250 315.816 C 377.762 315.990, 379 316.553, 379 317.066 C 379 318.323, 372.281 318.264, 371.500 317 C 370.536 315.441, 366 315.794, 366 317.429 C 366 323.179, 380.768 325.025, 384.471 319.738 C 386.390 316.998, 386.380 316.523, 384.364 314.507 C 383.144 313.286, 383.017 312.583, 383.864 311.736 C 385.665 309.935, 385.192 307.248, 382.777 305.557 C 379.655 303.370, 371.798 303.533, 368.944 305.844 M 389 313.500 L 389 323 395.750 322.985 C 404.266 322.967, 407.398 321.496, 407.806 317.323 C 408.202 313.279, 405.127 311, 399.277 311 C 396.925 311, 395 310.550, 395 310 C 395 309.450, 396.988 309, 399.418 309 C 405.124 309, 407 308.231, 407 305.893 C 407 304.176, 406.164 304, 398 304 L 389 304 389 313.500 M 409 304.417 C 409 304.646, 409.882 306.892, 410.960 309.408 C 412.183 312.260, 414.159 314.736, 416.210 315.987 L 419.500 317.993 416.750 317.996 C 414.484 317.999, 414 318.440, 414 320.500 C 414 322.658, 414.448 323, 417.277 323 C 422.121 323, 424.468 320.797, 427.384 313.514 C 430.688 305.262, 430.692 304, 427.420 304 C 425.338 304, 424.536 304.773, 423.268 308 C 422.273 310.532, 421.058 312, 419.957 312 C 418.861 312, 417.625 310.521, 416.617 308 C 415.246 304.575, 414.584 304, 412.008 304 C 410.354 304, 409 304.188, 409 304.417 M 433 313.566 L 433 323.133 435.750 322.816 C 437.719 322.590, 438.591 321.861, 438.820 320.250 C 439.087 318.368, 439.760 318, 442.935 318 C 448.229 318, 452 314.874, 452 310.484 C 452 305.548, 449.201 304, 440.277 304 L 433 304 433 313.566 M 456.041 305.959 C 453.482 308.518, 453.437 311.437, 455.918 313.918 C 457.808 315.808, 457.800 315.883, 455.367 319.168 L 452.898 322.500 456.114 322.826 C 458.721 323.090, 459.787 322.568, 461.738 320.076 C 464.971 315.945, 468 315.940, 468 320.066 C 468 322.822, 468.279 323.101, 470.750 322.816 L 473.500 322.500 473.500 313.500 L 473.500 304.500 465.791 304.209 C 459.132 303.957, 457.805 304.195, 456.041 305.959 M 476 305.893 C 476 307.883, 477.842 309, 481.126 309 C 482.205 309, 483.015 309.563, 482.925 310.250 C 482.836 310.938, 482.816 314.087, 482.882 317.250 C 482.992 322.615, 483.160 323, 485.393 323 C 488.315 323, 489 321.394, 489 314.543 C 489 309.462, 489.120 309.226, 492 308.650 C 494.148 308.220, 495 307.475, 495 306.025 C 495 304.134, 494.372 304, 485.500 304 C 476.846 304, 476 304.169, 476 305.893 M 497.212 313.250 L 497.500 322.500 500.500 322.782 C 503.121 323.028, 503.942 322.409, 507 317.881 L 510.500 312.699 510.802 317.850 C 511.094 322.817, 511.209 323, 514.052 323 L 517 323 517 313.500 L 517 304 513.604 304 C 510.602 304, 509.820 304.607, 506.854 309.241 L 503.500 314.483 503.198 309.241 C 502.905 304.158, 502.806 304, 499.910 304 L 496.925 304 497.212 313.250 M 523.223 305.557 C 520.583 307.406, 520.239 312.096, 522.572 314.429 C 524.002 315.859, 523.956 316.240, 522.072 318.636 C 519.287 322.176, 519.457 323, 522.970 323 C 525.111 323, 526.560 322.162, 528.158 320 C 529.378 318.350, 531.191 317, 532.188 317 C 533.535 317, 534 317.770, 534 320 C 534 322.667, 534.333 323, 537 323 L 540 323 540 313.500 L 540 304 532.723 304 C 527.754 304, 524.740 304.494, 523.223 305.557 M 350.612 309.294 C 349.369 310.203, 348.940 311.617, 349.171 314.044 C 349.456 317.037, 349.895 317.545, 352.451 317.836 C 357.249 318.382, 359.845 312.988, 356.429 309.571 C 354.518 307.661, 352.948 307.586, 350.612 309.294 M 439 311 C 439 314.359, 441.216 315.025, 444.471 312.645 C 447.165 310.675, 445.760 308, 442.031 308 C 439.330 308, 439 308.326, 439 311 M 461.336 309.567 C 460.512 311.714, 462.284 313.238, 465.135 312.835 C 466.695 312.614, 467.609 311.734, 467.820 310.250 C 468.092 308.332, 467.682 308, 465.038 308 C 463.145 308, 461.703 308.610, 461.336 309.567 M 527.336 309.567 C 526.512 311.714, 528.284 313.238, 531.135 312.835 C 532.695 312.614, 533.609 311.734, 533.820 310.250 C 534.092 308.332, 533.682 308, 531.038 308 C 529.145 308, 527.703 308.610, 527.336 309.567 M 306.180 316.240 C 306.565 318.935, 308.848 319.563, 311.422 317.681 C 313.914 315.859, 312.626 314, 308.871 314 C 306.325 314, 305.910 314.345, 306.180 316.240 M 395 317 C 395 319.145, 398.263 319.753, 400.878 318.096 C 402.955 316.781, 401.266 315, 397.941 315 C 395.667 315, 395 315.453, 395 317" stroke="none" fill="#fbfbfb" fill-rule="evenodd"/></svg>